<svg xmlns="http://www.w3.org/2000/svg" xmlns:xlink="http://www.w3.org/1999/xlink" width="264px" height="280px" viewBox="0 0 264 280" version="1.1">
    <title id="circle_Title">Avataaar/Circle</title>
    <desc>Created with python_avatars</desc>
    <defs>
        <circle id="circle_path-1" cx="120" cy="120" r="120" />
        <path d="M-3.19744231e-14,160 L-3.19744231e-14,-1.42108547e-14 L264,-1.42108547e-14 L264,160 L252,160 C252,226.27417 198.27417,280 132,280 C65.72583,280 12,226.27417 12,160 L12,160 L-3.19744231e-14,160 Z" id="circle_path-3" />
        <path d="M100,0 C130.927946,-5.68137151e-15 156,25.072054 156,56 L156.000809,62.1660527 C161.675838,63.1185422 166,68.05429 166,74 L166,88 C166,94.0524166 161.519235,99.0582945 155.693975,99.8813638 C153.627928,119.686472 141.237929,136.421678 124.001014,144.610469 L124,163 L128,163 C167.764502,163 200,195.235498 200,235 L200,244 L0,244 L0,235 C-4.86974701e-15,195.235498 32.235498,163 72,163 L76,163 L75.9999836,144.610943 C58.7625487,136.422324 46.3721119,119.686854 44.3051107,99.8809698 C38.480765,99.0582945 34,94.0524166 34,88 L34,74 C34,68.053942 38.3246685,63.1179645 44.0001873,62.1658855 L44,56 C44,25.072054 69.072054,5.68137151e-15 100,0 Z" id="circle_path-5" />
        <path d="M83,36.3476251 C83,52.6289957 105.161905,65.8276544 132.5,65.8276544 C159.838095,65.8276544 182,52.6289957 182,36.3476251 C182,34.9853134 181.844841,33.6445843 181.544472,32.3313638 C210.784239,41.4879251 232,68.792221 232,101.051724 L232,110 L32,110 L32,101.051724 C32,68.3970853 53.7386736,40.8197864 83.5337207,32.0021267 C83.1821692,33.4207025 83,34.871494 83,36.3476251 Z" id="circle_path-7" />
        <rect id="circle_path-9" x="0" y="0" width="264" height="280" />
        <path d="M74,0 C114.869071,0 148,33.1309285 148,74 L148,84.1482318 L148,197.608051 C135.525121,187.236892 119.490913,181 102,181 L102,181 L98,181 L98,162.610951 C115.530782,154.282984 128.048193,137.114792 129.791419,116.867187 C135.569129,116.002364 140,111.018625 140,105 L140,105 L140,92 C140,87.3536213 137.359271,83.3240177 133.496777,81.3301515 C132.723933,81.0500337 131.951808,80.748163 131.180891,80.4262497 C130.794819,80.3202581 130.400778,80.2331546 130,80.1659169 L130,80.1659169 L130.000458,79.9172528 C117.224481,74.2339715 104.877985,63.0706967 96.1104311,47.8848473 C93.1752556,42.8009742 90.8310687,37.5951441 89.0661426,32.3970356 C80.4313947,42.9409152 67.7445474,53.6023901 52.3415164,62.4953343 C42.777598,68.0170651 33.1467898,72.2910056 24,75.2659587 L24.0003852,137.246608 C29.6019576,148.318362 38.7728825,157.277529 50,162.610951 L50,162.610951 L50,181 L46,181 C38.3273639,181 30.9350359,182.200142 24.0004995,184.422941 L24,230 C24,244.105888 13.5691766,255.775526 0,257.716445 L0,74 C0,33.1309285 33.1309285,0 74,0 Z" id="circle_path-11" />
    </defs>
    <g id="circle_Avataaar/Circle" stroke="none" stroke-width="1" fill="none" fill-rule="evenodd">
        <g id="circle_Circle" transform="translate(12.000000, 40.000000)">
            <mask id="circle_mask-2" fill="white">
                <use xlink:href="#circle_path-1" />
            </mask>
            <use id="circle_Background-Color" fill="#FFFFFF" xlink:href="#circle_path-1" />
            <g id="circle_Fabric-Color" mask="url(#circle_mask-2)" fill="">
                <rect id="circle_ðŸ–Color" x="0" y="0" width="240" height="240" />
            </g>
        </g>
        <mask id="circle_mask-4" fill="white">
            <use xlink:href="#circle_path-3" />
        </mask>
        <g id="circle_Mask" />
        <g id="circle_Avataaar" mask="url(#circle_mask-4)">
            <g id="circle_Body" transform="translate(32.000000, 36.000000)">
                <mask id="circle_mask-6" fill="white">
                    <use xlink:href="#circle_path-5" />
                </mask>
                <use fill="#D0C6AC" xlink:href="#circle_path-5" />
                <g id="circle_Skin-Color" mask="url(#circle_mask-6)" fill="#EDB98A">
                    <g transform="translate(-32.000000, 0.000000)" id="circle_Color">
                        <rect x="0" y="0" width="264" height="244" />
                    </g>
                </g>
                <path d="M44,94 C44,124.927946 69.072054,150 100,150 C130.927946,150 156,124.927946 156,94 L156,94 L156,102 C156,132.927946 130.927946,158 100,158 C69.072054,158 44,132.927946 44,102 Z" id="circle_Neck-Shadow" fill-opacity="0.100000001" fill="#000000" mask="url(#circle_mask-6)" />
            </g>
            <g id="circle_Clothing" transform="translate(0.000000, 170.000000)">
                
            <defs>
        <path d="M187.997478,34.7419477 L187.994775,34.6445513 C213.853089,45.5674185 232,71.1642324 232,100.999485 L232,110 L32,110 L32,100.999485 C32,71.1638494 50.1473773,45.5667611 76.0062213,34.6441305 C76.281568,20.5515788 90.0823522,15.075879 108.000323,13.0708785 L108,32 C108,45.254834 118.745166,56 132,56 C145.254834,56 156,45.254834 156,32 L156,32 L156.001405,13.0710429 C173.960465,15.0808175 187.783368,20.5773078 187.997478,34.7419477 Z" id="hoodie_path-1" />
    </defs>
    <g id="hoodie_Clothing/Hoodie" stroke="none" stroke-width="1" fill="none" fill-rule="evenodd">
        <mask id="hoodie_mask-2" fill="white">
            <use xlink:href="#hoodie_path-1" />
        </mask>
        <use id="hoodie_Hoodie" fill="#B7C1DB" xlink:href="#hoodie_path-1" />
        <g id="hoodie_Fabric-Color" mask="url(#hoodie_mask-2)" fill="#3C4F5C">
            <rect id="hoodie_ðŸ–Color" x="0" y="0" width="264" height="110" />
        </g>
        <path d="M101.999618,61.7388852 L102,110 L95,110 L94.9990839,58.149718 C97.2029904,59.4596568 99.5461861,60.6605136 101.999618,61.7388852 Z M169.001367,58.1494501 L169,98.5 C169,100.432997 167.432997,102 165.5,102 C163.567003,102 162,100.432997 162,98.5 L162.001384,61.7384448 C164.454619,60.6601132 166.797629,59.4593148 169.001367,58.1494501 Z" id="hoodie_Straps" fill="#F4F4F4" mask="url(#hoodie_mask-2)" />
        <path d="M132,68 L130.99629,67.9952183 C97.8802308,67.680027 65.5,51.8228864 65.5,32.3076923 C65.5,21.2431784 75.908757,15.5714792 90.9589345,12.7245804 C81.8748056,16.0747223 76,21.706273 76,31.0769231 C76,51.4689754 103.821205,68 132,68 Z M132,68 C160.178795,68 188,51.4689754 188,31.0769231 C188,21.706273 182.125194,16.0747223 173.040502,12.724588 C188.091243,15.5714792 198.5,21.2431784 198.5,32.3076923 C198.5,52.0200095 165.462319,68 132,68 L132,68 Z" id="hoodie_Shadow" fill-opacity="0.16" fill="#000000" mask="url(#hoodie_mask-2)" />
    </g>
</g>
            <g id="circle_Face" transform="translate(76.000000, 82.000000)" fill="#000000">
                <g id="circle_Mouth" transform="translate(2.000000, 52.000000)">    
                    
                <defs>
        <rect id="grimace_path-1" x="24" y="9" width="60" height="22" rx="11" />
    </defs>
    <g id="grimace_Mouth/Grimace" stroke="none" stroke-width="1" fill="none" fill-rule="evenodd">
        <rect id="grimace_Mouth" fill-opacity="0.599999964" fill="#000000" x="22" y="7" width="64" height="26" rx="13" />
        <mask id="grimace_mask-2" fill="white">
            <use xlink:href="#grimace_path-1" />
        </mask>
        <use id="grimace_Mouth" fill="#FFFFFF" xlink:href="#grimace_path-1" />
        <path d="M36,6 L35.9993333,17.999 L44.9993333,17.999 L45,6 L49,6 L48.9993333,17.999 L57.9993333,17.999 L58,6 L62,6 L61.9993333,17.999 L70.9993333,17.999 L71,6 L75,6 L74.9993333,17.999 L83.8666667,18 L83.8666667,22 L74.9993333,21.999 L75,34 L71,34 L70.9993333,21.999 L61.9993333,21.999 L62,34 L58,34 L57.9993333,21.999 L48.9993333,21.999 L49,34 L45,34 L44.9993333,21.999 L35.9993333,21.999 L36,34 L32,34 L31.9993333,21.999 L24,22 L24,18 L31.9993333,17.999 L32,6 L36,6 Z" id="grimace_Grimace-Teeth" fill="#E6E6E6" mask="url(#grimace_mask-2)" />
    </g>
</g>
                <g id="circle_Nose" transform="translate(28.000000, 40.000000)" fill-opacity="0.16">
                    
                <g id="default_Nose/Default" stroke="none" stroke-width="1" fill="none" fill-rule="evenodd" fill-opacity="0.16">
        <path d="M16,8 C16,12.418278 21.372583,16 28,16 L28,16 C34.627417,16 40,12.418278 40,8" id="default_Nose" fill="#000000" />
    </g>
</g>
                <g id="circle_Eyes" transform="translate(0.000000, 8.000000)">
                    
                <g id="surprised_Eyes/Surprised-ðŸ˜³" stroke="none" stroke-width="1" fill="none" fill-rule="evenodd">
        <circle id="surprised_The-White-Stuff" fill="#FFFFFF" cx="30" cy="22" r="14" />
        <circle id="surprised_Eye-Ball" fill="#FFFFFF" cx="82" cy="22" r="14" />
        <circle id="surprised_Eye" fill-opacity="0.699999988" fill="#000000" cx="30" cy="22" r="6" />
        <circle id="surprised_Eye" fill-opacity="0.699999988" fill="#000000" cx="82" cy="22" r="6" />
    </g>
</g>
                <g id="circle_Eyebrow" fill-opacity="0.599999964">
                    
                <g id="angry_Eyebrow/Outline/Angry" stroke="none" stroke-width="1" fill="none" fill-rule="evenodd" fill-opacity="0.599999964">
        <path d="M15.6114904,15.1845247 C19.8515017,9.41618792 22.4892046,9.70087612 28.9238518,14.5564693 C29.1057771,14.6937504 29.2212592,14.7812575 29.5936891,15.063789 C34.4216439,18.7263562 36.7081807,20 40,20 C41.1045695,20 42,19.1045695 42,18 C42,16.8954305 41.1045695,16 40,16 C37.9337712,16 36.0986396,14.9777974 32.011227,11.8770179 C31.6358269,11.5922331 31.5189458,11.5036659 31.3332441,11.3635351 C27.5737397,8.52660822 25.3739873,7.28738405 22.6379899,6.99208688 C18.9538127,6.59445233 15.5799484,8.47367246 12.3885096,12.8154753 C11.7343147,13.7054768 11.9254737,14.9572954 12.8154753,15.6114904 C13.7054768,16.2656853 14.9572954,16.0745263 15.6114904,15.1845247 Z" id="angry_Eyebrow" fill="#000000" fill-rule="nonzero" />
        <path d="M73.6114904,15.1845247 C77.8515017,9.41618792 80.4892046,9.70087612 86.9238518,14.5564693 C87.1057771,14.6937504 87.2212592,14.7812575 87.5936891,15.063789 C92.4216439,18.7263562 94.7081807,20 98,20 C99.1045695,20 100,19.1045695 100,18 C100,16.8954305 99.1045695,16 98,16 C95.9337712,16 94.0986396,14.9777974 90.011227,11.8770179 C89.6358269,11.5922331 89.5189458,11.5036659 89.3332441,11.3635351 C85.5737397,8.52660822 83.3739873,7.28738405 80.6379899,6.99208688 C76.9538127,6.59445233 73.5799484,8.47367246 70.3885096,12.8154753 C69.7343147,13.7054768 69.9254737,14.9572954 70.8154753,15.6114904 C71.7054768,16.2656853 72.9572954,16.0745263 73.6114904,15.1845247 Z" id="angry_Eyebrow" fill="#000000" fill-rule="nonzero" transform="translate(84.999934, 13.470064) scale(-1, 1) translate(-84.999934, -13.470064) " />
    </g>
</g>
            </g>
            <g id="circle_Top">
                
            <defs>
        <path d="M180.14998,39.9204083 C177.390206,37.1003988 174.185913,34.7068297 171.069252,32.3065503 C170.381566,31.777442 169.682843,31.2610833 169.010544,30.7118441 C168.857687,30.5870323 167.291999,29.4657388 167.104691,29.0530544 C166.653816,28.0602634 166.915042,28.8332916 166.977255,27.6485857 C167.055857,26.150508 170.11064,21.9193194 167.831176,20.9490079 C166.828413,20.522232 165.039628,21.6579526 164.077671,22.0330592 C162.196235,22.7671676 160.291721,23.3932399 158.346734,23.9330847 C159.278588,22.0763407 161.055333,18.3594977 157.71591,19.3543018 C155.114345,20.1293431 152.690052,22.1219709 150.075777,23.0594018 C150.940735,21.6415124 154.399901,17.2479341 151.274209,17.0023366 C150.301549,16.925839 147.471201,18.7503735 146.423952,19.1395717 C143.287223,20.3054888 140.083264,21.0590571 136.789999,21.6525844 C125.59203,23.6707114 112.497238,23.0953019 102.1368,28.1934632 C94.1494796,32.1236942 86.262502,38.2220278 81.648386,45.987539 C77.2011742,53.472559 75.537818,61.6641751 74.6069673,70.2412987 C73.9239644,76.535909 73.8684412,83.0425652 74.1878671,89.3599905 C74.2922241,91.4297869 74.5250203,100.970847 77.5319724,98.0813859 C79.0300967,96.641688 79.019059,90.8282073 79.3963495,88.8604076 C80.1472513,84.9452748 80.870057,81.0126951 82.122006,77.2227096 C84.3282191,70.5439339 86.9307879,63.4296587 92.4269209,58.8297383 C95.9539853,55.8782066 98.4307906,51.8889248 101.806002,48.9112229 C103.322188,47.5738572 102.165231,47.7130963 104.602902,47.888571 C106.240504,48.006337 107.885464,48.0512961 109.52641,48.0942421 C113.322394,48.1928837 117.124399,48.16772 120.921387,48.1811407 C128.56821,48.208653 136.179243,48.316689 143.818708,47.9164188 C147.213653,47.7385955 150.617965,47.6423024 154.00388,47.3282597 C155.895349,47.152785 159.251496,45.9405668 160.808488,46.8669256 C162.233362,47.7144383 163.71309,50.4817719 164.736257,51.615144 C167.153525,54.2935659 170.035717,56.3392052 172.862385,58.5354911 C178.756547,63.114945 181.732392,68.8666908 183.522515,76.023241 C185.305949,83.1532854 184.805905,89.76815 187.013456,96.78479 C187.401784,98.0184813 188.428965,100.14498 189.695296,98.2389151 C189.930434,97.8849461 189.869559,95.9390277 189.869559,94.819339 C189.869559,90.2995934 191.014141,86.9083772 190.999893,82.3591197 C190.943566,68.5271489 190.49637,50.4908308 180.14998,39.9204083 Z" id="short_flat_path-1" />
    </defs>
    <g id="short_flat_Top/Short-Hair/Short-Flat" stroke="none" stroke-width="1" fill="none" fill-rule="evenodd">
        <g id="short_flat_Facial-Hair" transform="translate(49.000000, 72.000000)" />
        <mask id="short_flat_mask-2" fill="white">
            <use xlink:href="#short_flat_path-1" />
        </mask>
        <use id="short_flat_Short-Hair" fill="#1F3140" xlink:href="#short_flat_path-1" />
        <g id="short_flat_Hair-Color" mask="url(#short_flat_mask-2)" fill="#2C1B18">
            <g transform="translate(1.000000, 0.000000)" id="short_flat_Color">
                <rect x="0" y="0" width="264" height="280" />
            </g>
        </g>
        <g id="short_flat_Accessory" transform="translate(62.000000, 85.000000)">
        </g>
    </g>
</g>
        </g>
    </g>
</svg>